<svg xmlns="http://www.w3.org/2000/svg" viewBox="0 0 64 64" role="img" aria-label="Agent Tower control node logo">
  <rect width="64" height="64" rx="16" fill="#0f172a"/>
  <path d="M20 16h24l12 12v8L44 48H20L8 36v-8z" fill="none" stroke="#2dd4bf" stroke-width="3" stroke-linejoin="round"/>
  <path d="M25 25h14v14H25z" fill="none" stroke="#f8fafc" stroke-width="3" stroke-linejoin="round"/>
  <circle cx="32" cy="32" r="4" fill="#f59e0b"/>
  <path d="M32 21v-7M21 32h-7M43 32h7M32 43v7" fill="none" stroke="#94a3b8" stroke-width="2.5" stroke-linecap="round"/>
  <circle cx="32" cy="11" r="2.5" fill="#f59e0b"/>
  <circle cx="11" cy="32" r="2.5" fill="#14b8a6"/>
  <circle cx="53" cy="32" r="2.5" fill="#14b8a6"/>
  <circle cx="32" cy="53" r="2.5" fill="#f8fafc"/>
  <path d="M28 28l-8-8M36 28l8-8M28 36l-8 8M36 36l8 8" fill="none" stroke="#94a3b8" stroke-width="2" stroke-linecap="round"/>
</svg>
